<svg data-v-fde0c5aa="" xmlns="http://www.w3.org/2000/svg" viewBox="0 0 300 300" class="iconLeft"><!----><defs data-v-fde0c5aa=""><!----></defs><rect data-v-fde0c5aa="" fill="transparent" x="0" y="0" width="300px" height="300px" class="logo-background-square"></rect><defs data-v-fde0c5aa=""><!----></defs><g data-v-fde0c5aa="" id="7b70e2a6-05f3-42da-bfc8-52f5642bafca" fill="#FFFFFF" transform="matrix(2.632324611540292,0,0,2.632324611540292,93.8739916883524,136.77256912511768)"><path d="M7.18 0.70L7.18 0.70Q7.45 0.85 7.58 1.13L7.58 1.13L7.58 1.13Q7.71 1.40 7.71 1.72L7.71 1.72L7.71 1.72Q7.71 2.00 7.60 2.28L7.60 2.28L7.60 2.28Q7.49 2.56 7.31 2.74L7.31 2.74L7.31 2.74Q5.71 2.77 4.30 2.88L4.30 2.88L4.30 2.88Q4.23 3.18 4.00 4.19L4.00 4.19L4.00 4.19Q3.98 4.31 3.82 5.07L3.82 5.07L3.82 5.07Q5.32 4.94 6.19 4.73L6.19 4.73L6.19 4.73Q6.47 4.90 6.62 5.17L6.62 5.17L6.62 5.17Q6.76 5.45 6.76 5.77L6.76 5.77L6.76 5.77Q6.76 6.06 6.64 6.32L6.64 6.32L6.64 6.32Q6.52 6.58 6.31 6.73L6.31 6.73L6.31 6.73Q6.05 6.76 5.79 6.78L5.79 6.78L5.79 6.78Q5.53 6.79 5.29 6.80L5.29 6.80L3.54 6.93L3.54 6.93Q3.43 7.64 3.32 8.62L3.32 8.62L3.32 8.62Q3.19 9.67 3.09 10.09L3.09 10.09L3.09 10.09Q3.00 10.50 2.77 10.50L2.77 10.50L2.77 10.50Q2.42 10.50 1.98 10.26L1.98 10.26L1.98 10.26Q1.54 10.01 1.23 9.68L1.23 9.68L1.23 9.68Q0.91 9.35 0.91 9.14L0.91 9.14L0.91 9.14Q0.91 8.93 1.06 8.22L1.06 8.22L1.06 8.22Q1.20 7.50 1.39 6.68L1.39 6.68L1.39 6.68Q2.02 3.96 2.13 2.95L2.13 2.95L1.54 3.00L1.54 3.00Q1.27 2.86 1.11 2.58L1.11 2.58L1.11 2.58Q0.95 2.31 0.95 1.99L0.95 1.99L0.95 1.99Q0.95 1.43 1.39 0.99L1.39 0.99L1.39 0.99Q3.30 0.97 4.73 0.91L4.73 0.91L4.73 0.91Q6.15 0.85 7.18 0.70L7.18 0.70ZM10.33 2.20L10.33 2.20Q10.07 2.20 9.70 1.98L9.70 1.98L9.70 1.98Q9.32 1.76 9.06 1.46L9.06 1.46L9.06 1.46Q8.79 1.16 8.79 0.92L8.79 0.92L8.79 0.92Q8.79 0.55 8.99 0.17L8.99 0.17L8.99 0.17Q9.18-0.21 9.48-0.38L9.48-0.38L9.48-0.38Q9.62-0.45 9.93-0.45L9.93-0.45L9.93-0.45Q10.43-0.45 10.94-0.22L10.94-0.22L10.94-0.22Q11.45 0 11.56 0.34L11.56 0.34L11.56 0.34Q11.59 0.41 11.59 0.55L11.59 0.55L11.59 0.55Q11.59 0.87 11.40 1.26L11.40 1.26L11.40 1.26Q11.20 1.65 10.91 1.92L10.91 1.92L10.91 1.92Q10.61 2.20 10.33 2.20L10.33 2.20ZM9.38 10.50L9.38 10.50Q9.02 10.50 8.56 10.26L8.56 10.26L8.56 10.26Q8.11 10.01 7.78 9.68L7.78 9.68L7.78 9.68Q7.45 9.35 7.45 9.13L7.45 9.13L7.45 9.13Q7.45 8.88 7.63 8.39L7.63 8.39L7.63 8.39Q7.81 7.90 8.18 7.04L8.18 7.04L8.18 7.04Q8.46 6.38 8.60 6.01L8.60 6.01L8.60 6.01Q8.74 5.64 8.74 5.49L8.74 5.49L8.74 5.49Q8.74 5.38 8.60 5.24L8.60 5.24L8.60 5.24Q8.47 5.11 8.20 4.91L8.20 4.91L8.20 4.91Q7.90 4.68 7.75 4.54L7.75 4.54L7.75 4.54Q7.60 4.40 7.60 4.24L7.60 4.24L7.60 4.24Q7.60 3.95 7.88 3.56L7.88 3.56L7.88 3.56Q8.15 3.16 8.52 2.88L8.52 2.88L8.52 2.88Q8.89 2.60 9.16 2.60L9.16 2.60L9.16 2.60Q9.48 2.60 9.86 2.88L9.86 2.88L9.86 2.88Q10.25 3.16 10.52 3.55L10.52 3.55L10.52 3.55Q10.79 3.93 10.79 4.17L10.79 4.17L10.79 4.17Q10.79 4.79 10.48 5.93L10.48 5.93L10.48 5.93Q10.16 7.07 9.67 8.39L9.67 8.39L9.67 8.39Q10.01 8.23 10.26 8.06L10.26 8.06L10.26 8.06Q10.51 7.90 10.96 7.55L10.96 7.55L10.96 7.55Q11.59 7.76 11.89 8.14L11.89 8.14L11.89 8.14Q12.18 8.53 12.18 8.97L12.18 8.97L12.18 8.97Q12.18 9.34 11.71 9.69L11.71 9.69L11.71 9.69Q11.24 10.04 10.57 10.27L10.57 10.27L10.57 10.27Q9.90 10.50 9.38 10.50L9.38 10.50ZM17.02 4.27L17.02 4.27Q16.39 4.75 16.01 5.21L16.01 5.21L16.01 5.21Q15.62 5.67 15.62 5.99L15.62 5.99L15.62 5.99Q15.62 6.15 15.89 6.31L15.89 6.31L15.89 6.31Q16.16 6.47 16.77 6.75L16.77 6.75L16.77 6.75Q17.75 7.20 18.31 7.58L18.31 7.58L18.31 7.58Q18.87 7.97 18.87 8.47L18.87 8.47L18.87 8.47Q18.87 8.97 18.30 9.44L18.30 9.44L18.30 9.44Q17.74 9.91 16.90 10.21L16.90 10.21L16.90 10.21Q16.06 10.50 15.33 10.50L15.33 10.50L15.33 10.50Q14.78 10.50 14.18 10.27L14.18 10.27L14.18 10.27Q13.58 10.04 13.17 9.68L13.17 9.68L13.17 9.68Q12.77 9.32 12.77 9.00L12.77 9.00L12.77 9.00Q12.77 8.43 13.14 8.09L13.14 8.09L13.14 8.09Q13.51 7.74 14.11 7.74L14.11 7.74L14.11 7.74Q14.39 7.74 14.69 7.83L14.69 7.83L14.69 7.83Q14.92 8.58 15.09 8.90L15.09 8.90L15.09 8.90Q15.95 8.68 16.62 8.15L16.62 8.15L16.62 8.15Q15.44 7.64 14.47 7.01L14.47 7.01L14.47 7.01Q13.50 6.38 13.50 5.84L13.50 5.84L13.50 5.84Q13.50 5.28 14.01 4.50L14.01 4.50L14.01 4.50Q14.53 3.72 15.34 3.16L15.34 3.16L15.34 3.16Q16.14 2.59 16.98 2.59L16.98 2.59L16.98 2.59Q17.56 2.59 18.08 2.93L18.08 2.93L18.08 2.93Q18.61 3.26 18.93 3.77L18.93 3.77L18.93 3.77Q19.25 4.27 19.25 4.75L19.25 4.75L19.25 4.75Q19.25 5.21 18.89 5.50L18.89 5.50L18.89 5.50Q18.54 5.78 17.99 5.78L17.99 5.78L17.99 5.78Q17.64 5.78 17.28 5.64L17.28 5.64L17.28 5.64Q17.25 5.08 17.02 4.27L17.02 4.27ZM22.46 7.56L22.46 7.56Q22.41 8.65 22.25 9.58L22.25 9.58L22.25 9.58Q22.08 10.50 21.78 10.50L21.78 10.50L21.78 10.50Q21.43 10.50 20.97 10.26L20.97 10.26L20.97 10.26Q20.51 10.02 20.18 9.70L20.18 9.70L20.18 9.70Q19.85 9.37 19.85 9.13L19.85 9.13L19.85 9.13Q19.85 8.96 19.96 8.55L19.96 8.55L19.96 8.55Q20.08 8.13 20.23 7.63L20.23 7.63L20.23 7.63Q20.78 5.84 21.08 4.42L21.08 4.42L21.08 4.42Q21.25 3.64 21.38 2.80L21.38 2.80L21.38 2.80Q21.57 1.68 21.71 1.08L21.71 1.08L21.71 1.08Q21.85 0.48 22.07 0.06L22.07 0.06L22.07 0.06Q22.29-0.35 22.61-0.35L22.61-0.35L22.61-0.35Q22.85-0.35 23.32-0.06L23.32-0.06L23.32-0.06Q23.79 0.22 24.15 0.60L24.15 0.60L24.15 0.60Q24.51 0.97 24.51 1.20L24.51 1.20L24.51 1.20Q24.51 1.41 24.37 1.67L24.37 1.67L24.37 1.67Q24.22 1.93 23.88 2.41L23.88 2.41L23.88 2.41Q23.81 2.51 23.63 2.80L23.63 2.80L23.63 2.80Q23.44 3.09 23.35 3.29L23.35 3.29L23.35 3.29Q23.18 3.70 22.98 4.33L22.98 4.33L22.98 4.33Q22.78 4.96 22.64 5.56L22.64 5.56L22.89 5.70L22.89 5.70Q23.80 4.47 24.48 3.72L24.48 3.72L24.48 3.72Q25.16 2.98 25.54 2.98L25.54 2.98L25.54 2.98Q25.80 2.98 26.18 3.25L26.18 3.25L26.18 3.25Q26.56 3.51 26.84 3.86L26.84 3.86L26.84 3.86Q27.12 4.20 27.12 4.38L27.12 4.38L27.12 4.38Q27.10 4.63 26.96 5.10L26.96 5.10L26.96 5.10Q26.81 5.57 26.50 6.41L26.50 6.41L26.50 6.41Q26.11 7.42 25.80 8.39L25.80 8.39L25.80 8.39Q26.24 8.22 26.53 8.05L26.53 8.05L26.53 8.05Q26.82 7.88 27.22 7.59L27.22 7.59L27.22 7.59Q27.80 7.84 28.08 8.22L28.08 8.22L28.08 8.22Q28.35 8.60 28.32 9.14L28.32 9.14L28.32 9.14Q28.32 9.48 27.81 9.79L27.81 9.79L27.81 9.79Q27.30 10.09 26.64 10.30L26.64 10.30L26.64 10.30Q25.97 10.50 25.58 10.50L25.58 10.50L25.58 10.50Q25.26 10.50 24.84 10.25L24.84 10.25L24.84 10.25Q24.42 10.00 24.11 9.67L24.11 9.67L24.11 9.67Q23.80 9.34 23.81 9.16L23.81 9.16L23.81 9.16Q23.81 9.04 23.95 8.62L23.95 8.62L23.95 8.62Q24.09 8.19 24.14 8.04L24.14 8.04L24.14 8.04Q24.40 7.20 24.54 6.70L24.54 6.70L24.54 6.70Q24.67 6.20 24.67 5.96L24.67 5.96L24.67 5.96Q24.67 5.80 24.60 5.80L24.60 5.80L24.60 5.80Q24.29 5.80 23.67 6.33L23.67 6.33L23.67 6.33Q23.06 6.86 22.46 7.56L22.46 7.56ZM31.39 10.50L31.39 10.50Q31.07 10.50 30.63 10.26L30.63 10.26L30.63 10.26Q30.18 10.02 29.86 9.70L29.86 9.70L29.86 9.70Q29.53 9.38 29.53 9.17L29.53 9.17L29.53 9.17Q29.53 8.81 30.21 5.46L30.21 5.46L30.21 5.46Q30.30 5.07 30.49 4.12L30.49 4.12L30.49 4.12Q30.67 3.18 30.74 2.76L30.74 2.76L30.23 2.84L30.23 2.84Q29.79 2.44 29.79 1.82L29.79 1.82L29.79 1.82Q29.79 1.39 30.03 0.92L30.03 0.92L30.03 0.92Q31.16 0.63 32.33 0.63L32.33 0.63L32.33 0.63Q33.56 0.63 34.62 0.95L34.62 0.95L34.62 0.95Q35.67 1.27 36.33 1.94L36.33 1.94L36.33 1.94Q36.99 2.60 36.99 3.60L36.99 3.60L36.99 3.60Q36.99 4.48 36.41 5.27L36.41 5.27L36.41 5.27Q35.83 6.06 34.72 6.58L34.72 6.58L34.72 6.58Q33.61 7.10 32.12 7.21L32.12 7.21L32.12 7.21Q32.02 7.88 31.96 8.43L31.96 8.43L31.96 8.43Q31.84 9.49 31.72 10.00L31.72 10.00L31.72 10.00Q31.61 10.50 31.39 10.50L31.39 10.50ZM32.33 5.47L32.33 5.47Q33.54 5.24 34.21 4.74L34.21 4.74L34.21 4.74Q34.87 4.24 34.87 3.63L34.87 3.63L34.87 3.63Q34.87 3.21 34.46 2.92L34.46 2.92L34.46 2.92Q34.05 2.63 33.35 2.63L33.35 2.63L33.35 2.63Q33.10 2.63 32.80 2.67L32.80 2.67L32.58 3.99L32.58 3.99Q32.38 5.10 32.33 5.47L32.33 5.47ZM40.67 2.59L40.67 2.59Q41.66 2.70 42.48 3.18L42.48 3.18L42.48 3.18Q43.30 3.67 43.76 4.34L43.76 4.34L43.76 4.34Q44.23 5.01 44.23 5.68L44.23 5.68L44.23 5.68Q44.23 6.69 43.71 7.83L43.71 7.83L43.71 7.83Q43.19 8.96 42.27 9.73L42.27 9.73L42.27 9.73Q41.34 10.50 40.21 10.50L40.21 10.50L40.21 10.50Q39.65 10.50 39.02 10.09L39.02 10.09L39.02 10.09Q38.39 9.67 37.96 9.08L37.96 9.08L37.96 9.08Q37.53 8.48 37.53 8.02L37.53 8.02L37.53 8.02Q37.53 7.17 37.74 6.26L37.74 6.26L37.74 6.26Q37.95 5.36 38.39 4.51L38.39 4.51L38.39 4.51Q38.79 4.28 39.20 4.28L39.20 4.28L39.20 4.28Q39.38 4.28 39.54 4.33L39.54 4.33L39.54 4.33Q39.48 4.16 39.48 3.93L39.48 3.93L39.48 3.93Q39.48 3.49 39.80 3.12L39.80 3.12L39.80 3.12Q40.11 2.76 40.67 2.59L40.67 2.59ZM39.70 8.90L39.70 8.90Q40.87 8.51 41.51 7.56L41.51 7.56L41.51 7.56Q42.15 6.61 42.36 5.29L42.36 5.29L42.36 5.29Q41.73 4.84 40.66 4.84L40.66 4.84L40.66 4.84Q40.39 4.84 40.25 4.86L40.25 4.86L40.25 4.86Q40.40 5.14 40.40 5.49L40.40 5.49L40.40 5.49Q40.04 6.06 39.84 6.75L39.84 6.75L39.84 6.75Q39.65 7.45 39.65 8.15L39.65 8.15L39.65 8.15Q39.65 8.57 39.70 8.90L39.70 8.90ZM52.09 7.55L52.09 7.55Q52.71 7.76 53.01 8.13L53.01 8.13L53.01 8.13Q53.31 8.50 53.31 8.97L53.31 8.97L53.31 8.97Q53.31 9.31 52.84 9.67L52.84 9.67L52.84 9.67Q52.36 10.02 51.70 10.26L51.70 10.26L51.70 10.26Q51.04 10.50 50.58 10.50L50.58 10.50L50.58 10.50Q50.26 10.50 49.84 10.25L49.84 10.25L49.84 10.25Q49.42 10.00 49.12 9.67L49.12 9.67L49.12 9.67Q48.82 9.34 48.82 9.16L48.82 9.16L48.82 9.16Q48.82 9.02 49.13 8.06L49.13 8.06L49.13 8.06Q49.67 6.40 49.67 5.96L49.67 5.96L49.67 5.96Q49.67 5.80 49.59 5.80L49.59 5.80L49.59 5.80Q49.03 5.80 47.50 7.76L47.50 7.76L47.50 7.76Q47.45 7.98 47.38 8.32L47.38 8.32L47.38 8.32Q47.32 8.65 47.29 8.79L47.29 8.79L47.29 8.79Q47.14 9.62 47.00 10.06L47.00 10.06L47.00 10.06Q46.87 10.50 46.66 10.50L46.66 10.50L46.66 10.50Q46.30 10.50 45.84 10.26L45.84 10.26L45.84 10.26Q45.39 10.01 45.06 9.68L45.06 9.68L45.06 9.68Q44.73 9.35 44.73 9.13L44.73 9.13L44.73 9.13Q44.73 8.88 44.91 8.39L44.91 8.39L44.91 8.39Q45.09 7.90 45.46 7.04L45.46 7.04L45.46 7.04Q45.74 6.38 45.88 6.01L45.88 6.01L45.88 6.01Q46.02 5.64 46.02 5.49L46.02 5.49L46.02 5.49Q46.02 5.38 45.88 5.24L45.88 5.24L45.88 5.24Q45.75 5.11 45.49 4.91L45.49 4.91L45.49 4.91Q45.18 4.68 45.03 4.54L45.03 4.54L45.03 4.54Q44.88 4.40 44.88 4.24L44.88 4.24L44.88 4.24Q44.88 3.95 45.16 3.56L45.16 3.56L45.16 3.56Q45.43 3.16 45.80 2.88L45.80 2.88L45.80 2.88Q46.17 2.60 46.44 2.60L46.44 2.60L46.44 2.60Q46.73 2.60 47.12 2.87L47.12 2.87L47.12 2.87Q47.50 3.14 47.79 3.48L47.79 3.48L47.79 3.48Q48.08 3.82 48.08 4.00L48.08 4.00L48.08 4.00Q48.08 4.34 48.00 4.83L48.00 4.83L48.00 4.83Q47.92 5.32 47.80 5.80L47.80 5.80L47.80 5.80Q48.82 4.45 49.49 3.72L49.49 3.72L49.49 3.72Q50.16 2.98 50.54 2.98L50.54 2.98L50.54 2.98Q50.81 2.98 51.18 3.25L51.18 3.25L51.18 3.25Q51.56 3.51 51.83 3.86L51.83 3.86L51.83 3.86Q52.11 4.20 52.11 4.38L52.11 4.38L52.11 4.38Q52.09 4.62 51.91 5.19L51.91 5.19L51.91 5.19Q51.73 5.77 51.39 6.72L51.39 6.72L51.39 6.72Q50.95 7.95 50.82 8.39L50.82 8.39L50.82 8.39Q51.25 8.16 51.50 8.00L51.50 8.00L51.50 8.00Q51.74 7.84 52.09 7.55L52.09 7.55ZM61.89 7.55L61.89 7.55Q62.51 7.76 62.81 8.13L62.81 8.13L62.81 8.13Q63.11 8.50 63.11 8.97L63.11 8.97L63.11 8.97Q63.11 9.31 62.64 9.67L62.64 9.67L62.64 9.67Q62.16 10.02 61.50 10.26L61.50 10.26L61.50 10.26Q60.84 10.50 60.38 10.50L60.38 10.50L60.38 10.50Q60.06 10.50 59.65 10.26L59.65 10.26L59.65 10.26Q59.23 10.02 58.93 9.70L58.93 9.70L58.93 9.70Q58.63 9.38 58.63 9.20L58.63 9.20L58.63 9.20Q58.63 9.06 58.75 8.82L58.75 8.82L58.75 8.82Q58.87 8.58 59.01 8.33L59.01 8.33L59.01 8.33Q59.15 8.08 59.19 7.99L59.19 7.99L58.84 7.80L58.84 7.80Q58.10 9.00 57.43 9.75L57.43 9.75L57.43 9.75Q56.77 10.50 56.17 10.50L56.17 10.50L56.17 10.50Q55.72 10.50 55.20 10.10L55.20 10.10L55.20 10.10Q54.68 9.70 54.32 9.15L54.32 9.15L54.32 9.15Q53.96 8.60 53.96 8.16L53.96 8.16L53.96 8.16Q53.96 6.86 54.50 5.56L54.50 5.56L54.50 5.56Q55.05 4.27 55.95 3.44L55.95 3.44L55.95 3.44Q56.85 2.60 57.86 2.60L57.86 2.60L57.86 2.60Q58.27 2.60 58.70 2.81L58.70 2.81L58.70 2.81Q59.12 3.02 59.50 3.39L59.50 3.39L59.50 3.39Q59.63 2.03 59.63 0.35L59.63 0.35L59.63 0.35Q59.63 0.06 59.81-0.15L59.81-0.15L59.81-0.15Q60.00-0.35 60.27-0.35L60.27-0.35L60.27-0.35Q60.66-0.35 61.14-0.07L61.14-0.07L61.14-0.07Q61.63 0.21 61.96 0.60L61.96 0.60L61.96 0.60Q62.30 0.98 62.30 1.22L62.30 1.22L62.30 1.22Q62.30 1.54 62.16 2.04L62.16 2.04L62.16 2.04Q62.02 2.53 61.66 3.64L61.66 3.64L61.66 3.64Q61.15 5.14 61.03 5.70L61.03 5.70L61.03 5.70Q60.65 7.22 60.45 8.44L60.45 8.44L60.45 8.44Q61.31 8.02 61.89 7.55L61.89 7.55ZM56.15 8.55L56.15 8.55Q57.11 7.84 57.89 7.02L57.89 7.02L57.89 7.02Q58.67 6.20 59.21 5.12L59.21 5.12L59.33 4.58L59.33 4.58Q58.90 4.38 58.56 4.38L58.56 4.38L58.56 4.38Q57.90 4.38 57.39 4.97L57.39 4.97L57.39 4.97Q56.87 5.56 56.56 6.51L56.56 6.51L56.56 6.51Q56.25 7.46 56.15 8.55L56.15 8.55Z"></path></g><defs data-v-fde0c5aa=""><!----></defs><g data-v-fde0c5aa="" id="7b263d1f-1210-4855-9406-ce3497d9f42e" stroke="none" fill="#4E1A70" transform="matrix(0.500146764529525,0,0,0.500146764529525,36.62722154186571,124.99266225050089)"><g clip-rule="evenodd"><path d="M6.759 48.647c-.031.916-.012 1.823.028 2.721h86.451l.019-2.722-86.498.001zM57.854 7.485c-10.998-2.005-21.963.347-30.616 5.79l41.124-.003c-1.867-3.041-5.505-4.977-10.508-5.787zM69.006 14.4H25.528c-2.644 1.799-4.963 3.843-7.048 6.062l51.689.001a11.698 11.698 0 0 0-1.163-6.063zM39.318 47.325c5.644.203 11.469-1.267 16.616-3.763l36.851.001a49.51 49.51 0 0 0-.452-2.541l-33.125-.007c1.91-1.58 3.7-3.436 5.274-5.783h26.177a42.206 42.206 0 0 0-.775-1.948l-24.17-.001c1.46-2.651 2.701-5.362 3.505-8.133H85.37c-.406-.56-.812-1.121-1.255-1.681l-14.464-.002c.088-.351.146-.692.208-1.042l-53.113-.005c-1.461 1.732-2.749 3.609-3.929 5.575l53.538.01c-2.421 2.144-5.117 3.001-8.003 2.977l-47.161-.003a44.649 44.649 0 0 0-2.1 5.036h35.205c-1.047 1.066-2.107 2.402-2.867 3.726l-33.435-.01a48.969 48.969 0 0 0-.789 4.055l32.644-.001a13.893 13.893 0 0 0-.531 3.54zM74.499 14.399a41.7 41.7 0 0 0-1.72-1.125h-4.416c.25.375.441.732.641 1.124l5.495.001zM42.182 92.515c10.998 2.005 21.963-.347 30.616-5.79l-41.098.002c1.847 3.121 5.479 4.978 10.482 5.788zM31.055 85.6h43.453c2.644-1.799 4.963-3.843 7.048-6.062l-51.689-.001c-.144 1.998.198 4.016 1.188 6.063zM60.718 52.675c-5.644-.203-11.469 1.267-16.616 3.763l-36.851-.001c.128.857.282 1.704.452 2.541l33.125.007c-1.91 1.58-3.7 3.436-5.274 5.783H9.377c.244.656.499 1.307.775 1.948l24.17.001c-1.46 2.651-2.701 5.362-3.505 8.133h-16.15c.406.56.812 1.121 1.255 1.681l14.464.002c-.088.351-.146.692-.208 1.042l53.113.005c1.46-1.732 2.749-3.609 3.929-5.575l-53.538-.01c2.421-2.145 5.117-3.001 8.003-2.977l47.161.003a44.464 44.464 0 0 0 2.1-5.036H55.741c1.047-1.066 2.107-2.402 2.867-3.726l33.435.01c.323-1.369.59-2.72.789-4.055l-32.643.001c.331-1.179.508-2.36.529-3.54z"></path><path d="M25.536 85.599c.561.387 1.138.765 1.724 1.128h4.44c-.236-.362-.431-.735-.644-1.128h-5.52z"></path></g></g><!----></svg>